<mxfile host="Electron" modified="2023-08-26T19:08:45.092Z" agent="Mozilla/5.0 (Windows NT 10.0; Win64; x64) AppleWebKit/537.36 (KHTML, like Gecko) draw.io/21.6.8 Chrome/114.0.5735.289 Electron/25.5.0 Safari/537.36" etag="1wqkT8f_VSUL9d29Z-xH" version="21.6.8" type="device">
  <diagram id="R2lEEEUBdFMjLlhIrx00" name="Page-1">
    <mxGraphModel dx="1886" dy="614" grid="1" gridSize="10" guides="1" tooltips="1" connect="1" arrows="1" fold="1" page="1" pageScale="1" pageWidth="850" pageHeight="1100" math="0" shadow="0" extFonts="Permanent Marker^https://fonts.googleapis.com/css?family=Permanent+Marker">
      <root>
        <mxCell id="0" />
        <mxCell id="1" parent="0" />
        <mxCell id="3QZZbLPybEh1JC4-fALl-3" value="" style="edgeStyle=orthogonalEdgeStyle;rounded=0;orthogonalLoop=1;jettySize=auto;html=1;" edge="1" parent="1" source="OEsIJ_CUoVsStXbZcPKZ-1" target="3QZZbLPybEh1JC4-fALl-1">
          <mxGeometry relative="1" as="geometry" />
        </mxCell>
        <mxCell id="3QZZbLPybEh1JC4-fALl-41" value="0-N" style="edgeLabel;html=1;align=center;verticalAlign=middle;resizable=0;points=[];" vertex="1" connectable="0" parent="3QZZbLPybEh1JC4-fALl-3">
          <mxGeometry x="-0.2107" y="-3" relative="1" as="geometry">
            <mxPoint as="offset" />
          </mxGeometry>
        </mxCell>
        <mxCell id="3QZZbLPybEh1JC4-fALl-5" style="edgeStyle=orthogonalEdgeStyle;rounded=0;orthogonalLoop=1;jettySize=auto;html=1;" edge="1" parent="1" source="OEsIJ_CUoVsStXbZcPKZ-1" target="3QZZbLPybEh1JC4-fALl-4">
          <mxGeometry relative="1" as="geometry" />
        </mxCell>
        <mxCell id="3QZZbLPybEh1JC4-fALl-10" value="" style="edgeStyle=orthogonalEdgeStyle;rounded=0;orthogonalLoop=1;jettySize=auto;html=1;" edge="1" parent="1" source="OEsIJ_CUoVsStXbZcPKZ-1" target="3QZZbLPybEh1JC4-fALl-9">
          <mxGeometry relative="1" as="geometry" />
        </mxCell>
        <mxCell id="3QZZbLPybEh1JC4-fALl-11" value="" style="edgeStyle=orthogonalEdgeStyle;rounded=0;orthogonalLoop=1;jettySize=auto;html=1;" edge="1" parent="1" source="OEsIJ_CUoVsStXbZcPKZ-1" target="3QZZbLPybEh1JC4-fALl-9">
          <mxGeometry relative="1" as="geometry" />
        </mxCell>
        <mxCell id="3QZZbLPybEh1JC4-fALl-15" style="edgeStyle=orthogonalEdgeStyle;rounded=0;orthogonalLoop=1;jettySize=auto;html=1;exitX=0.75;exitY=1;exitDx=0;exitDy=0;" edge="1" parent="1" source="OEsIJ_CUoVsStXbZcPKZ-1" target="3QZZbLPybEh1JC4-fALl-14">
          <mxGeometry relative="1" as="geometry" />
        </mxCell>
        <mxCell id="3QZZbLPybEh1JC4-fALl-16" style="edgeStyle=orthogonalEdgeStyle;rounded=0;orthogonalLoop=1;jettySize=auto;html=1;exitX=0.25;exitY=1;exitDx=0;exitDy=0;" edge="1" parent="1" source="OEsIJ_CUoVsStXbZcPKZ-1" target="3QZZbLPybEh1JC4-fALl-8">
          <mxGeometry relative="1" as="geometry" />
        </mxCell>
        <mxCell id="3QZZbLPybEh1JC4-fALl-17" style="edgeStyle=orthogonalEdgeStyle;rounded=0;orthogonalLoop=1;jettySize=auto;html=1;exitX=0.25;exitY=0;exitDx=0;exitDy=0;entryX=0.5;entryY=1;entryDx=0;entryDy=0;" edge="1" parent="1" source="OEsIJ_CUoVsStXbZcPKZ-1" target="3QZZbLPybEh1JC4-fALl-6">
          <mxGeometry relative="1" as="geometry" />
        </mxCell>
        <mxCell id="OEsIJ_CUoVsStXbZcPKZ-1" value="Persona" style="rounded=0;whiteSpace=wrap;html=1;" parent="1" vertex="1">
          <mxGeometry x="140" y="190" width="120" height="60" as="geometry" />
        </mxCell>
        <mxCell id="OEsIJ_CUoVsStXbZcPKZ-2" value="Realiza" style="rhombus;whiteSpace=wrap;html=1;" parent="1" vertex="1">
          <mxGeometry x="360" y="180" width="80" height="80" as="geometry" />
        </mxCell>
        <mxCell id="OEsIJ_CUoVsStXbZcPKZ-3" value="" style="endArrow=none;html=1;rounded=0;exitX=1;exitY=0.5;exitDx=0;exitDy=0;entryX=0;entryY=0.5;entryDx=0;entryDy=0;" parent="1" source="3QZZbLPybEh1JC4-fALl-33" target="OEsIJ_CUoVsStXbZcPKZ-2" edge="1">
          <mxGeometry width="50" height="50" relative="1" as="geometry">
            <mxPoint x="400" y="330" as="sourcePoint" />
            <mxPoint x="450" y="280" as="targetPoint" />
          </mxGeometry>
        </mxCell>
        <mxCell id="3QZZbLPybEh1JC4-fALl-28" style="edgeStyle=orthogonalEdgeStyle;rounded=0;orthogonalLoop=1;jettySize=auto;html=1;exitX=0.5;exitY=1;exitDx=0;exitDy=0;entryX=0.5;entryY=0;entryDx=0;entryDy=0;" edge="1" parent="1" source="3QZZbLPybEh1JC4-fALl-37" target="3QZZbLPybEh1JC4-fALl-27">
          <mxGeometry relative="1" as="geometry" />
        </mxCell>
        <mxCell id="OEsIJ_CUoVsStXbZcPKZ-4" value="Actividades" style="rounded=0;whiteSpace=wrap;html=1;" parent="1" vertex="1">
          <mxGeometry x="580" y="190" width="120" height="60" as="geometry" />
        </mxCell>
        <mxCell id="OEsIJ_CUoVsStXbZcPKZ-5" value="" style="endArrow=none;html=1;rounded=0;entryX=0;entryY=0.5;entryDx=0;entryDy=0;exitX=1;exitY=0.5;exitDx=0;exitDy=0;" parent="1" source="3QZZbLPybEh1JC4-fALl-34" target="OEsIJ_CUoVsStXbZcPKZ-4" edge="1">
          <mxGeometry width="50" height="50" relative="1" as="geometry">
            <mxPoint x="450" y="260" as="sourcePoint" />
            <mxPoint x="500" y="210" as="targetPoint" />
          </mxGeometry>
        </mxCell>
        <mxCell id="3QZZbLPybEh1JC4-fALl-1" value="Telefonos" style="ellipse;whiteSpace=wrap;html=1;align=center;" vertex="1" parent="1">
          <mxGeometry x="-30" y="195" width="100" height="40" as="geometry" />
        </mxCell>
        <mxCell id="3QZZbLPybEh1JC4-fALl-4" value="DNI" style="ellipse;whiteSpace=wrap;html=1;align=center;fontStyle=4;" vertex="1" parent="1">
          <mxGeometry x="180" y="100" width="100" height="40" as="geometry" />
        </mxCell>
        <mxCell id="3QZZbLPybEh1JC4-fALl-6" value="CUIT" style="ellipse;whiteSpace=wrap;html=1;align=center;fontStyle=4;" vertex="1" parent="1">
          <mxGeometry x="90" y="110" width="100" height="40" as="geometry" />
        </mxCell>
        <mxCell id="3QZZbLPybEh1JC4-fALl-8" value="Apellido" style="ellipse;whiteSpace=wrap;html=1;align=center;" vertex="1" parent="1">
          <mxGeometry x="50" y="300" width="100" height="40" as="geometry" />
        </mxCell>
        <mxCell id="3QZZbLPybEh1JC4-fALl-9" value="Nombre" style="ellipse;whiteSpace=wrap;html=1;align=center;" vertex="1" parent="1">
          <mxGeometry x="160" y="300" width="100" height="40" as="geometry" />
        </mxCell>
        <mxCell id="3QZZbLPybEh1JC4-fALl-19" style="edgeStyle=orthogonalEdgeStyle;rounded=0;orthogonalLoop=1;jettySize=auto;html=1;exitX=0.5;exitY=1;exitDx=0;exitDy=0;entryX=0.5;entryY=0;entryDx=0;entryDy=0;" edge="1" parent="1" source="3QZZbLPybEh1JC4-fALl-14" target="3QZZbLPybEh1JC4-fALl-18">
          <mxGeometry relative="1" as="geometry" />
        </mxCell>
        <mxCell id="3QZZbLPybEh1JC4-fALl-22" style="edgeStyle=orthogonalEdgeStyle;rounded=0;orthogonalLoop=1;jettySize=auto;html=1;exitX=0.5;exitY=1;exitDx=0;exitDy=0;entryX=0.5;entryY=0;entryDx=0;entryDy=0;" edge="1" parent="1" source="3QZZbLPybEh1JC4-fALl-14" target="3QZZbLPybEh1JC4-fALl-21">
          <mxGeometry relative="1" as="geometry" />
        </mxCell>
        <mxCell id="3QZZbLPybEh1JC4-fALl-24" style="edgeStyle=orthogonalEdgeStyle;rounded=0;orthogonalLoop=1;jettySize=auto;html=1;exitX=0.5;exitY=1;exitDx=0;exitDy=0;entryX=0.5;entryY=0;entryDx=0;entryDy=0;" edge="1" parent="1" source="3QZZbLPybEh1JC4-fALl-14" target="3QZZbLPybEh1JC4-fALl-23">
          <mxGeometry relative="1" as="geometry" />
        </mxCell>
        <mxCell id="3QZZbLPybEh1JC4-fALl-43" value="o-N" style="edgeLabel;html=1;align=center;verticalAlign=middle;resizable=0;points=[];" vertex="1" connectable="0" parent="3QZZbLPybEh1JC4-fALl-24">
          <mxGeometry x="0.585" y="-2" relative="1" as="geometry">
            <mxPoint as="offset" />
          </mxGeometry>
        </mxCell>
        <mxCell id="3QZZbLPybEh1JC4-fALl-26" style="edgeStyle=orthogonalEdgeStyle;rounded=0;orthogonalLoop=1;jettySize=auto;html=1;exitX=0.5;exitY=1;exitDx=0;exitDy=0;" edge="1" parent="1" source="3QZZbLPybEh1JC4-fALl-14" target="3QZZbLPybEh1JC4-fALl-25">
          <mxGeometry relative="1" as="geometry" />
        </mxCell>
        <mxCell id="3QZZbLPybEh1JC4-fALl-42" value="0-1" style="edgeLabel;html=1;align=center;verticalAlign=middle;resizable=0;points=[];" vertex="1" connectable="0" parent="3QZZbLPybEh1JC4-fALl-26">
          <mxGeometry x="0.6103" relative="1" as="geometry">
            <mxPoint as="offset" />
          </mxGeometry>
        </mxCell>
        <mxCell id="3QZZbLPybEh1JC4-fALl-14" value="Domicilio" style="ellipse;shape=doubleEllipse;margin=3;whiteSpace=wrap;html=1;align=center;" vertex="1" parent="1">
          <mxGeometry x="260" y="300" width="100" height="40" as="geometry" />
        </mxCell>
        <mxCell id="3QZZbLPybEh1JC4-fALl-18" value="Calle" style="ellipse;whiteSpace=wrap;html=1;align=center;" vertex="1" parent="1">
          <mxGeometry x="130" y="420" width="100" height="40" as="geometry" />
        </mxCell>
        <mxCell id="3QZZbLPybEh1JC4-fALl-21" value="Altura" style="ellipse;whiteSpace=wrap;html=1;align=center;" vertex="1" parent="1">
          <mxGeometry x="230" y="420" width="100" height="40" as="geometry" />
        </mxCell>
        <mxCell id="3QZZbLPybEh1JC4-fALl-23" value="Departamento" style="ellipse;whiteSpace=wrap;html=1;align=center;" vertex="1" parent="1">
          <mxGeometry x="340" y="420" width="100" height="40" as="geometry" />
        </mxCell>
        <mxCell id="3QZZbLPybEh1JC4-fALl-25" value="Piso" style="ellipse;whiteSpace=wrap;html=1;align=center;" vertex="1" parent="1">
          <mxGeometry x="30" y="420" width="100" height="40" as="geometry" />
        </mxCell>
        <mxCell id="3QZZbLPybEh1JC4-fALl-27" value="Descripcion" style="ellipse;whiteSpace=wrap;html=1;align=center;" vertex="1" parent="1">
          <mxGeometry x="550" y="340" width="100" height="40" as="geometry" />
        </mxCell>
        <mxCell id="3QZZbLPybEh1JC4-fALl-31" value="Nombre" style="ellipse;whiteSpace=wrap;html=1;align=center;fontStyle=4;" vertex="1" parent="1">
          <mxGeometry x="600" y="70" width="100" height="40" as="geometry" />
        </mxCell>
        <mxCell id="3QZZbLPybEh1JC4-fALl-35" value="" style="endArrow=none;html=1;rounded=0;entryX=0;entryY=0.5;entryDx=0;entryDy=0;exitX=1;exitY=0.5;exitDx=0;exitDy=0;" edge="1" parent="1" source="OEsIJ_CUoVsStXbZcPKZ-2" target="3QZZbLPybEh1JC4-fALl-34">
          <mxGeometry width="50" height="50" relative="1" as="geometry">
            <mxPoint x="440" y="220" as="sourcePoint" />
            <mxPoint x="520" y="220" as="targetPoint" />
          </mxGeometry>
        </mxCell>
        <mxCell id="3QZZbLPybEh1JC4-fALl-34" value="0-N" style="text;html=1;align=center;verticalAlign=middle;resizable=0;points=[];autosize=1;strokeColor=none;fillColor=none;" vertex="1" parent="1">
          <mxGeometry x="530" y="205" width="40" height="30" as="geometry" />
        </mxCell>
        <mxCell id="3QZZbLPybEh1JC4-fALl-36" value="" style="endArrow=none;html=1;rounded=0;exitX=1;exitY=0.5;exitDx=0;exitDy=0;entryX=0;entryY=0.5;entryDx=0;entryDy=0;" edge="1" parent="1" source="OEsIJ_CUoVsStXbZcPKZ-1" target="3QZZbLPybEh1JC4-fALl-33">
          <mxGeometry width="50" height="50" relative="1" as="geometry">
            <mxPoint x="270" y="220" as="sourcePoint" />
            <mxPoint x="360" y="220" as="targetPoint" />
          </mxGeometry>
        </mxCell>
        <mxCell id="3QZZbLPybEh1JC4-fALl-33" value="0-N" style="text;html=1;align=center;verticalAlign=middle;resizable=0;points=[];autosize=1;strokeColor=none;fillColor=none;" vertex="1" parent="1">
          <mxGeometry x="270" y="205" width="40" height="30" as="geometry" />
        </mxCell>
        <mxCell id="3QZZbLPybEh1JC4-fALl-38" value="" style="edgeStyle=orthogonalEdgeStyle;rounded=0;orthogonalLoop=1;jettySize=auto;html=1;exitX=0.5;exitY=1;exitDx=0;exitDy=0;entryX=0.5;entryY=0;entryDx=0;entryDy=0;" edge="1" parent="1" source="OEsIJ_CUoVsStXbZcPKZ-4" target="3QZZbLPybEh1JC4-fALl-37">
          <mxGeometry relative="1" as="geometry">
            <mxPoint x="640" y="250" as="sourcePoint" />
            <mxPoint x="580" y="300" as="targetPoint" />
          </mxGeometry>
        </mxCell>
        <mxCell id="3QZZbLPybEh1JC4-fALl-37" value="1-1" style="text;html=1;align=center;verticalAlign=middle;resizable=0;points=[];autosize=1;strokeColor=none;fillColor=none;" vertex="1" parent="1">
          <mxGeometry x="600" y="270" width="40" height="30" as="geometry" />
        </mxCell>
        <mxCell id="3QZZbLPybEh1JC4-fALl-40" value="" style="edgeStyle=orthogonalEdgeStyle;rounded=0;orthogonalLoop=1;jettySize=auto;html=1;exitX=0.5;exitY=0;exitDx=0;exitDy=0;entryX=0.5;entryY=1;entryDx=0;entryDy=0;" edge="1" parent="1" source="OEsIJ_CUoVsStXbZcPKZ-4" target="3QZZbLPybEh1JC4-fALl-31">
          <mxGeometry relative="1" as="geometry">
            <mxPoint x="640" y="190" as="sourcePoint" />
            <mxPoint x="660" y="160" as="targetPoint" />
          </mxGeometry>
        </mxCell>
      </root>
    </mxGraphModel>
  </diagram>
</mxfile>
